<?xml version="1.0" encoding="UTF-8"?>
<svg xmlns="http://www.w3.org/2000/svg" version="1.1" viewBox="0 0 291.8 110.9">
  <defs>
    <style>
      .cls-1 {
        fill: #02e;
      }

      .cls-2 {
        fill: #fff;
      }
    </style>
  </defs>
  <!-- Generator: Adobe Illustrator 28.7.1, SVG Export Plug-In . SVG Version: 1.2.0 Build 142)  -->
  <g>
    <g id="Ebene_1">
      <g>
        <g>
          <path class="cls-1" d="M80.9,29.9v10.2s6.9-2.5,6.9-2.5c0,0,0,26.9,0,28.3-.8,8.2-9.3,5.6-12.1,3.5-.9-.6-7.3-5.1-7.3-5.1,6.2-2.2,15.9-10.2,11.1-21-6-11-16.6-7.4-16.6-7.4l-29.1,10.2v10s4.2-1.5,4.2-1.5v14s-18.8-17.6-18.8-17.6L0,57.7v10s5.8-2.1,5.8-2.1v28.6S0,96.3,0,96.3v10.5s22-7.7,22-7.7v-23.6s12.1,11,12.1,11l31-8.2s4.1,3.3,7.2,5.5c5.3,3.8,11.6,4.6,18.7,2.7,7.8-2.1,14.6-9,14.6-19.1,0-3.6,0-46.1,0-46.1l-24.7,8.6ZM62.1,56.2c-2.1.7-8.2,3-8.2,3v-9.7s4.2-1.5,6.3-2.2c2.1-.7,3.9,1.3,4,3.3,0,1.8.4,4.4-2.1,5.6ZM95,21.1c5.8,0,10.6-4.7,10.6-10.6,0-5.8-4.7-10.6-10.6-10.6-5.8,0-10.6,4.7-10.6,10.6,0,5.8,4.7,10.6,10.6,10.6Z"/>
          <polygon class="cls-1" points="15.8 101.4 9 94.5 9.6 91.7 22.1 91.1 22.1 99.2 15.8 101.4"/>
          <path class="cls-2" d="M105.6,66.6c-.5,8.1-5.7,14.7-16.4,15.4-5,.4-8-1.4-10.5-2.8-4.6-2.3-12.2-9.1-17-11-3.4-1.4-8.1-1.9-12.9-.9-4.8,1.1-7.4,2.8-9.3,4.3-1.9,1.5-5,4.5-5.8,5.3-.7.8-2.9,3.3-3,3.3-.2,0-.7-.6-1-1-.3-.4-.7-1.1-.8-1.1-.2,0-1.3,1.7-1.4,2.6,0,.9.4,2.2.4,2.5,0,.3-.4.6-.5.6-.1,0-1-1.1-1.1-1.1-.1,0-.5.8-.7,1.2s0,1.7,0,1.7c-1.1,1-3.1,2-5.2,2.6-1.4.4-8,1-8.2,1.1-.2,0-3.2,2.7-3.2,2.7v2.5c.1,0,.8-.6.8-.6l1.1,2,.7-1.3s.9,1.3,1.4,1.9c.2-1,1.4-3.2,3.1-3.7,1.6-.6,10-.8,10.2-.8,0,.2-.5,1.5-.5,1.5s1.8,2,1.9,2,1-.3,1.1-.3c0,0,.2-.2.2-.4,0,0,.7,0,1-.2-.8-.3-.9-.8-.6-1.2s1.6-.6,2.3-.2c.7.5,1.1,1.2.8,2.1-.3.7-1.2.4-1.5.4,0,.1.7.6.8.6,0,0,0,.2,0,.2,0,0,.2.3.3.3.1,0,2.9-1.5,3.1-1.7.2-.1.8-.7,1.1-1.4,0,0-1-.6-.9-1.7,0-1.1,1-1.7,2.2-1.6,1.1.1,1.7,1.1,1.4,2.4-.3,1-5.4,6.9-9.9,9.2-3,1.7-5.8,1.5-5.9,1.6-.2,0-2.9,2.4-2.9,2.4v2.1c-.1,0,.4-.3.4-.3l.8,2.2.6-.9,1.7,1.8.4-1.5,2.1,1.6s.1-.8.2-1.5c.3-.3,3.4-3,3.7-3.3.3-.3,4.9-2.6,8.9-5.3,4.6-3.1,9-6.3,9.1-7.1-.6-.5-2.8-2.5-2.7-4.8,0-2.3,2.7-4.5,5.8-5.8,3.1-1.4,7-.9,9.7,1.1,1.8,1.3,9.6,6.7,20.1,6.1,11-.6,17.5-4.2,21.3-10.8,3.9-6.6,3.6-11.6,3.5-12.8Z"/>
          <polygon class="cls-2" points="27.8 89.6 28.5 86.4 29.6 86.8 28.3 89.4 27.8 89.6"/>
        </g>
        <g>
          <path class="cls-2" d="M118.1,48.9v-.4l2.9-.4v-25l-2.7-.5v-.4h10.1l8.8,20.1-.6-.8h1.3l-.5.8,5.6-20.1h9.9v.4l-2,.4v25l2,.4v.4h-11.8v-.4l2.4-.4v-21.6h-.6l-6.7,22.4h-4.2l-9.8-21.6h-.6v3.9c0,1.1,0,2.3.2,3.7.2,1.4.4,2.8.7,4.3.3,1.5.8,2.9,1.3,4.2s1.2,2.4,2,3.4c.8.9,1.6,1.5,2.7,1.8v.4h-10.4Z"/>
          <path class="cls-2" d="M161.6,49.4c-1.9,0-3.3-.5-4.2-1.6-.9-1.1-1.4-2.7-1.4-4.9v-11.5h-2v-.4l9.2-1.4v14.4c0,1,.2,1.8.5,2.3.3.5.8.8,1.3.8s1-.3,1.6-.8c.5-.5,1.1-1.2,1.5-2.2.5-.9.9-1.9,1.3-3.1v-9.7h-2v-.4l9.2-1.4v18.1h2v.4l-9.2,1.4v-6.2l-.3-.3c-.9,2.2-2,3.8-3.2,4.9-1.2,1-2.6,1.6-4.3,1.6Z"/>
          <path class="cls-2" d="M189,49.4c-1.2,0-2.3-.1-3.3-.3-1.1-.2-2-.5-2.9-.9-.8-.4-1.5-.9-2-1.5-.5-.6-.7-1.3-.7-2s.2-1.1.6-1.5.9-.7,1.4-.9c.6-.2,1.2-.3,1.8-.3s1.3.1,1.9.3c.6.2,1,.5,1.4.9.3.4.5.8.5,1.4s0,.7-.2,1-.4.6-.7,1c-.4.3-.6.6-.7.8-.1.2-.2.4-.2.7s.1.3.3.5c.2.2.5.3,1,.4s1,.2,1.6.2,1.6-.1,2.3-.3c.7-.2,1.3-.5,1.7-1,.4-.4.6-1,.6-1.7s-.2-1.2-.5-1.7c-.4-.5-1-1-1.8-1.5-.9-.5-2-1-3.5-1.6-1.8-.7-3.2-1.4-4.2-2-1-.7-1.8-1.4-2.2-2.1-.4-.7-.7-1.5-.7-2.3,0-1.6.8-2.9,2.5-3.9,1.7-1,3.9-1.4,6.7-1.4s3,.2,4.3.6,2.4.9,3.2,1.6c.8.7,1.2,1.5,1.2,2.4s-.2,1.1-.5,1.4-.8.7-1.3.9c-.6.2-1.1.3-1.7.3s-1,0-1.4-.2c-.5-.1-.9-.3-1.3-.5s-.7-.5-.9-.8c-.2-.3-.4-.7-.4-1.1,0-.8.4-1.4,1.1-2,.4-.4.7-.6.8-.8.2-.2.2-.4.2-.6s0-.2-.2-.3c-.1-.1-.3-.2-.5-.2-.2,0-.5-.1-.9-.2-.4,0-.8,0-1.2,0-.9,0-1.6,0-2.4.3-.7.2-1.3.5-1.8.8-.5.4-.7.9-.7,1.5s.3,1.2.8,1.8,1.2,1,2.1,1.5c.9.5,1.9.9,3,1.4,1.9.8,3.4,1.5,4.5,2.1,1.1.6,1.9,1.3,2.3,1.9s.7,1.3.7,2.1-.3,2-.8,2.7c-.5.8-1.3,1.4-2.2,1.9-.9.5-1.9.9-3.1,1.1-1.1.3-2.3.4-3.6.4Z"/>
          <path class="cls-2" d="M200.7,48.9v-.4l2-.4v-16.8h-2v-.4l9.2-1.4v18.6l2,.4v.4h-11.1ZM206.1,27.1c-.9,0-1.7-.1-2.3-.4-.7-.2-1.2-.6-1.6-1.1-.4-.5-.6-1-.6-1.5s.2-1.1.6-1.5c.4-.4.9-.8,1.6-1,.7-.2,1.5-.4,2.3-.4s1.7.1,2.3.4c.7.3,1.2.6,1.6,1,.4.4.6.9.6,1.5s-.2,1.1-.6,1.5c-.4.5-.9.8-1.6,1.1-.7.3-1.5.4-2.3.4Z"/>
          <path class="cls-2" d="M222.5,48.1l2,.4v.4h-11.1v-.4l2-.4v-25.4h-2v-.4l9.2-1.4v27.3ZM222.2,38.6v-.6c.8-.1,1.7-.4,2.6-.7.9-.4,1.9-.8,2.9-1.3.8-.4,1.5-.8,2.1-1.1.6-.4,1-.7,1.3-.9.3-.2.5-.5.5-.6s-.2-.3-.5-.4c-.3-.1-.7-.2-1.2-.3-.5-.1-1-.2-1.5-.4-.5-.2-1-.3-1.5-.6-.5-.2-.9-.5-1.2-.9-.3-.4-.5-.9-.5-1.4s.2-1.1.5-1.5c.4-.4.8-.8,1.4-1,.6-.2,1.3-.4,2.1-.4s1.7.2,2.4.5c.7.3,1.3.8,1.7,1.3.4.6.6,1.2.6,2s-.2,1.5-.7,2.2c-.4.7-1.1,1.3-2,2-.5.4-1.2.8-1.9,1.3-.8.4-1.6.9-2.6,1.4v.5h4.1c.3,1,.6,1.9.9,2.7.3.9.5,1.7.8,2.5.3.8.6,1.6.9,2.3s.6,1.3.9,1.8c.3.5.6.9.8,1.1.1,0,.2.1.3.1s.2,0,.3,0v.4c-.4.2-.8.4-1.2.6-.4.2-.8.3-1.3.3s-.9,0-1.5,0c-1,0-2-.2-2.8-.7s-1.5-1.1-2.2-1.9c-.6-.9-1.1-1.9-1.6-3.1-.3-.9-.6-1.8-.9-2.6-.3-.8-.6-1.6-.8-2.5h-1.5Z"/>
        </g>
        <g>
          <path class="cls-2" d="M119,74.3c0-1.6.3-3.2.8-4.8.6-1.6,1.4-3,2.5-4.3,1.1-1.3,2.4-2.3,4-3.1,1.6-.8,3.4-1.2,5.4-1.2s4.4.5,6.1,1.6c1.7,1.1,2.9,2.5,3.8,4.2l-1.6.9c-.5-.9-1-1.7-1.7-2.3-.6-.6-1.3-1.1-2.1-1.5s-1.5-.7-2.3-.8c-.8-.2-1.6-.3-2.4-.3-1.7,0-3.2.3-4.5,1-1.3.7-2.4,1.6-3.3,2.7-.9,1.1-1.6,2.3-2,3.7-.5,1.4-.7,2.8-.7,4.2s.3,3.1.8,4.5c.6,1.4,1.3,2.7,2.3,3.8,1,1.1,2.1,2,3.4,2.6s2.7,1,4.2,1,1.6-.1,2.5-.3c.9-.2,1.7-.5,2.4-.9.8-.4,1.5-1,2.2-1.6s1.2-1.4,1.7-2.3l1.7.8c-.5,1-1.1,1.9-1.8,2.7-.8.8-1.6,1.4-2.6,2s-2,.9-3,1.2c-1.1.3-2.1.4-3.1.4-1.8,0-3.5-.4-5-1.2-1.5-.8-2.8-1.8-3.9-3.1s-2-2.8-2.6-4.4c-.6-1.6-.9-3.3-.9-5Z"/>
          <path class="cls-2" d="M162.2,87.9h-1.9v-10.9c0-4.8-1.6-7.3-4.8-7.3s-1.6.2-2.3.5c-.8.3-1.5.7-2.1,1.3-.7.6-1.2,1.2-1.7,1.9-.5.7-.9,1.5-1.1,2.4v12.1h-1.9v-27.4h1.9v12.6c.8-1.5,1.9-2.7,3.3-3.6,1.4-.9,2.9-1.4,4.6-1.4s2,.2,2.8.6c.8.4,1.4,1,1.9,1.7s.9,1.7,1.1,2.7.4,2.3.4,3.6v11.2Z"/>
          <path class="cls-2" d="M172.7,88.2c-.9,0-1.7-.2-2.5-.5-.8-.3-1.5-.7-2-1.3-.6-.5-1-1.2-1.4-1.9-.3-.7-.5-1.5-.5-2.4s.2-1.6.6-2.3c.4-.7,1-1.3,1.7-1.8s1.6-.9,2.6-1.2c1-.3,2.1-.4,3.3-.4s2.1,0,3.2.3c1.1.2,2,.4,2.9.8v-1.9c0-1.9-.5-3.3-1.6-4.4-1.1-1.1-2.5-1.6-4.3-1.6s-2,.2-3,.6c-1.1.4-2.1,1-3.3,1.7l-.7-1.3c2.5-1.7,4.9-2.6,7.1-2.6s4.2.7,5.6,2c1.4,1.4,2,3.3,2,5.7v9.5c0,.6.3.9.8.9v1.7c-.1,0-.3,0-.4,0-.1,0-.3,0-.4,0-.5,0-.9-.2-1.2-.5-.3-.3-.5-.7-.5-1.2v-1.6c-.9,1.2-2.1,2.1-3.5,2.7-1.4.6-2.9.9-4.5.9ZM173,86.7c1.5,0,2.8-.3,4-.8,1.2-.6,2.1-1.3,2.8-2.2.4-.5.6-1,.6-1.5v-3.5c-.9-.4-1.8-.6-2.8-.8-1-.2-2-.3-3-.3s-1.9.1-2.7.3c-.8.2-1.5.5-2.1.9-.6.4-1,.8-1.3,1.4s-.5,1.1-.5,1.8.1,1.3.4,1.8c.2.6.6,1.1,1.1,1.5.5.4,1,.7,1.6,1,.6.2,1.3.4,2,.4Z"/>
          <path class="cls-2" d="M188.2,60.4h1.9v23.6c0,.7.2,1.3.6,1.7.4.4,1,.6,1.7.6s.6,0,1,0,.7-.2,1.1-.3l.4,1.5c-.4.2-1,.3-1.6.4-.6.1-1.2.2-1.6.2-1.1,0-1.9-.3-2.5-1-.6-.6-1-1.5-1-2.6v-24.1Z"/>
          <path class="cls-2" d="M197.9,60.4h1.9v23.6c0,.7.2,1.3.6,1.7.4.4,1,.6,1.7.6s.6,0,1,0,.7-.2,1.1-.3l.4,1.5c-.4.2-1,.3-1.6.4-.6.1-1.2.2-1.6.2-1.1,0-1.9-.3-2.5-1-.6-.6-1-1.5-1-2.6v-24.1Z"/>
          <path class="cls-2" d="M215.8,88.2c-1.4,0-2.7-.3-3.8-.8-1.2-.5-2.2-1.3-3.1-2.2s-1.5-2-2-3.3c-.5-1.2-.7-2.5-.7-3.9s.2-2.7.7-3.9c.5-1.2,1.2-2.3,2-3.2.9-.9,1.9-1.6,3-2.2,1.2-.5,2.4-.8,3.8-.8s2.7.3,3.8.8c1.2.5,2.2,1.3,3,2.2.9.9,1.5,2,2,3.2.5,1.2.7,2.5.7,3.9v.5c0,.2,0,.3,0,.4h-17.1c0,1.1.3,2.2.8,3.1s1,1.8,1.7,2.5c.7.7,1.5,1.3,2.4,1.7.9.4,1.9.6,2.9.6s1.3,0,2-.3c.7-.2,1.3-.4,1.8-.8.6-.3,1.1-.7,1.5-1.2s.8-1,1-1.5l1.7.5c-.3.7-.7,1.3-1.2,1.9s-1.2,1.1-1.9,1.5c-.7.4-1.5.8-2.3,1-.9.2-1.7.4-2.6.4ZM223.5,77.3c0-1.2-.3-2.2-.8-3.2-.4-1-1-1.8-1.7-2.5-.7-.7-1.5-1.2-2.4-1.6-.9-.4-1.9-.6-2.9-.6s-2,.2-2.9.6c-.9.4-1.7.9-2.4,1.6-.7.7-1.2,1.5-1.7,2.5-.4,1-.7,2-.7,3.1h15.4Z"/>
          <path class="cls-2" d="M245.4,87.9h-1.9v-10.9c0-2.5-.4-4.4-1.1-5.5s-1.8-1.7-3.4-1.7-1.6.2-2.5.5-1.6.7-2.3,1.3c-.7.6-1.3,1.2-1.8,1.9s-.9,1.5-1.2,2.4v12.1h-1.9v-19.5h1.8v4.7c.4-.8.9-1.4,1.5-2s1.3-1.1,2-1.6c.7-.4,1.5-.8,2.3-1s1.7-.4,2.6-.4c2.1,0,3.6.7,4.5,2.2s1.3,3.6,1.3,6.4v11.2Z"/>
          <path class="cls-2" d="M259,88.2c-1.4,0-2.6-.3-3.7-.8-1.1-.6-2.1-1.3-2.9-2.3-.8-.9-1.5-2-1.9-3.2-.5-1.2-.7-2.4-.7-3.7s.2-2.6.7-3.8c.4-1.2,1.1-2.3,1.9-3.3.8-.9,1.8-1.7,2.9-2.2,1.1-.6,2.3-.8,3.7-.8s3.2.4,4.5,1.3,2.3,2,3.2,3.3v-4.2h1.7v19.9c0,1.3-.3,2.5-.8,3.5-.5,1-1.2,1.8-2,2.5-.8.7-1.8,1.2-2.9,1.5-1.1.3-2.3.5-3.5.5s-2.1-.1-3-.3c-.9-.2-1.7-.5-2.4-.9-.7-.4-1.3-.9-1.8-1.4-.5-.6-1-1.2-1.4-1.9l1.3-.9c.8,1.3,1.8,2.3,3.2,2.9,1.3.6,2.7.9,4.2.9s1.9-.1,2.8-.4c.9-.3,1.7-.7,2.3-1.2.7-.5,1.2-1.2,1.6-2,.4-.8.6-1.7.6-2.8v-4.3c-.8,1.3-1.9,2.3-3.2,3.1s-2.7,1.1-4.2,1.1ZM259.4,86.6c.8,0,1.6-.2,2.4-.5.8-.3,1.5-.7,2.1-1.2.6-.5,1.2-1.1,1.6-1.7.4-.6.7-1.3.8-1.9v-6.4c-.3-.8-.7-1.4-1.2-2.1-.5-.6-1.1-1.2-1.7-1.6-.6-.5-1.3-.8-2.1-1.1-.7-.3-1.5-.4-2.2-.4-1.2,0-2.2.3-3.2.8-.9.5-1.7,1.2-2.3,2-.6.8-1.1,1.7-1.5,2.7-.3,1-.5,2-.5,3.1s.2,2.2.6,3.2c.4,1,1,1.9,1.7,2.7.7.8,1.5,1.4,2.5,1.8,1,.5,2,.7,3,.7Z"/>
          <path class="cls-2" d="M282.4,88.2c-1.4,0-2.7-.3-3.8-.8-1.2-.5-2.2-1.3-3.1-2.2s-1.5-2-2-3.3c-.5-1.2-.7-2.5-.7-3.9s.2-2.7.7-3.9c.5-1.2,1.2-2.3,2-3.2.9-.9,1.9-1.6,3-2.2,1.2-.5,2.4-.8,3.8-.8s2.7.3,3.8.8c1.2.5,2.2,1.3,3,2.2.9.9,1.5,2,2,3.2.5,1.2.7,2.5.7,3.9v.5c0,.2,0,.3,0,.4h-17.1c0,1.1.3,2.2.8,3.1s1,1.8,1.7,2.5c.7.7,1.5,1.3,2.4,1.7.9.4,1.9.6,2.9.6s1.3,0,2-.3c.7-.2,1.3-.4,1.8-.8.6-.3,1.1-.7,1.5-1.2s.8-1,1-1.5l1.7.5c-.3.7-.7,1.3-1.2,1.9s-1.2,1.1-1.9,1.5c-.7.4-1.5.8-2.3,1-.9.2-1.7.4-2.6.4ZM290,77.3c0-1.2-.3-2.2-.8-3.2-.4-1-1-1.8-1.7-2.5-.7-.7-1.5-1.2-2.4-1.6-.9-.4-1.9-.6-2.9-.6s-2,.2-2.9.6c-.9.4-1.7.9-2.4,1.6-.7.7-1.2,1.5-1.7,2.5-.4,1-.7,2-.7,3.1h15.4Z"/>
        </g>
      </g>
    </g>
  </g>
</svg>